<?xml version="1.0" encoding="UTF-8"?>
<svg id="Layer_1" data-name="Layer 1" xmlns="http://www.w3.org/2000/svg" xmlns:xlink="http://www.w3.org/1999/xlink" viewBox="0 0 631.92 699.12">
  <defs>
    <style>
      .cls-1 {
        fill: #fff;
      }

      .cls-2 {
        fill: #3a3a3a;
      }

      .cls-3 {
        fill: url(#linear-gradient);
      }
    </style>
    <linearGradient id="linear-gradient" x1="307.2" y1="105.16" x2="565.5" y2="659.09" gradientUnits="userSpaceOnUse">
      <stop offset="0" stop-color="#e8da5a"/>
      <stop offset=".62" stop-color="#f3c92b"/>
      <stop offset="1" stop-color="#fbbf0e"/>
    </linearGradient>
  </defs>
  <path class="cls-3" d="M298.77,169.73c-13.61,22.17-56.88,102.05-45.12,205.1.06.52.1,1.04.12,1.56.33,10.25,6.26,135.11,104.13,237.86.61.64,1.25,1.24,1.93,1.81,5.34,4.5,29.95,24.66,53.1,34.42,1.19.5,2.37.87,3.63,1.15,7.37,1.68,34.51,7.64,49.58,7.61,5.23-.01,10.25,1.85,14.22,5.26,7.54,6.49,19.51,15.79,26.03,15.66,0,0,18.44,8.07,29.83-17.29,0,0,19.22-40.4,27.99-44.16,0,0,76.45-61.55,66.89-177.19,0,0-1.64-139.96-72.27-224.91-.8-.96-1.5-1.95-2.1-3.04-5.23-9.42-36.84-61.55-110.25-89.33-3.2-1.21-6.1-3.12-8.42-5.64-9.44-10.25-37.7-37.5-66.95-32.11,0,0-38.48-5.76-58.25,25.2,0,0-13.24,19.29-11.08,44.83.39,4.62-.57,9.25-3,13.2Z"/>
  <path class="cls-1" d="M0,681.33c44.12-48.4,92.66-92.97,145.37-131.96,32.1-23.44,65.98-44.63,102.57-60.52,0,0,6.63,16.73,6.63,16.73-11.95,4.41-23.75,9.43-35.38,14.9-81.75,40.1-153.91,97.8-219.2,160.84h0Z"/>
  <path class="cls-2" d="M241.52,28.9l-77.7,99.84c-.75.96-.51,2.36.53,3.01l30.45,19.23c.87.55,2.01.38,2.69-.38l32.81-37.01s.06-.06.09-.1l26-25.83c.8-.8,2.09-.81,2.91-.04l10.36,9.81c.31.29.51.66.6,1.07l19.29,92.27c.23,1.1,1.3,1.81,2.41,1.61l172.89-31.18c.73-.13,1.47.13,1.95.68l140.16,161.86c.56.64,1.45.88,2.26.6l11.89-4.11c1.21-.42,1.76-1.81,1.16-2.94l-90.53-167.87c-.05-.09-.1-.17-.16-.25L421.93.84c-.46-.62-1.24-.94-2.01-.82l-156.61,24.84-20.48,3.25c-.53.08-1,.36-1.32.78Z"/>
  <path class="cls-1" d="M76.74,687.71c47.1-50.9,99.79-97.89,160.43-132.15,8.86-4.82,17.92-9.34,27.25-13.45l6.54,16.77c-27.37,9.6-53.29,23.25-77.96,38.54-41.6,26.11-80.44,56.64-116.27,90.29h0Z"/>
  <path class="cls-1" d="M137.13,699.12c41.6-40.7,87.74-78.05,141.52-101.56,0,0,6.07,16.95,6.07,16.95-26.86,8.29-52.57,20.98-76.9,35.36-24.62,14.74-48.37,31.12-70.69,49.25h0Z"/>
</svg>